# xmcd
#
# Track frame offsets:
#	150
#	43242
#	61180
#	90692
#	115327
#	127635
#	141735
#	189895
#	204977
#	215580
#	265147
#	278672
#	292327
#	306992
#	317892
#
# Disc length: 4410
#
# Revision: 2
# Processed by: cddbd v1.5.1PL0 Copyright (c) Steve Scherf et al.
# Submitted via: EasyCDDAExtractor 5.1.0
# Normalized: r1:DSETVAR1
#
DISCID=ec11380f
DTITLE=Various Artist - Blues and Polar. Serie Noir . Folio Policier
DYEAR=1900
DGENRE=Blues
TTITLE0=Art Blakey And Th Jazz Messengers - Moanin'
TTITLE1=Brownie McGhee and Sonny Terry - Livin' With The Blues
TTITLE2=Dexter Gordon - Cheese Cake
TTITLE3=Herbie Hancock - Cantaloupe Island
TTITLE4=John Lee Hooker - Crying All Night Long
TTITLE5=Jimmy Rogers - That's All right
TTITLE6=John Coltrane - Blue Train
TTITLE7=Muddy Waters - Hoochie Coochie Man
TTITLE8=Menphis Slim - How Long
TTITLE9=Miles Davis And Cannonball Adderley - Autumn Leaves
TTITLE10=PeeWee Crayton - When It Rains It Pours
TTITLE11=T-Bone Walker - Call It Stormy Monday But Tuesday Is Just As Bad
TTITLE12=Lowell Fulson - Good Woman Blues
TTITLE13=Smokey Hogg - When T've Been Drinking
TTITLE14=Boo Breeding - I Can't Fly (Aka Date With An Angel)
EXTD=
EXTT0=
EXTT1=
EXTT2=
EXTT3=
EXTT4=
EXTT5=
EXTT6=
EXTT7=
EXTT8=
EXTT9=
EXTT10=
EXTT11=
EXTT12=
EXTT13=
EXTT14=
PLAYORDER=
